<svg width="97" height="97" viewBox="0 0 97 97" fill="none" xmlns="http://www.w3.org/2000/svg">
<path fill-rule="evenodd" clip-rule="evenodd" d="M52.38 16.3803C52.9425 15.8185 53.705 15.5029 54.5 15.5029C55.295 15.5029 56.0575 15.8185 56.62 16.3803L86.62 46.3803C87.1818 46.9428 87.4974 47.7053 87.4974 48.5003C87.4974 49.2953 87.1818 50.0578 86.62 50.6203L56.62 80.6203C56.3454 80.915 56.0141 81.1514 55.6462 81.3154C55.2782 81.4794 54.8809 81.5675 54.4781 81.5747C54.0753 81.5818 53.6752 81.5077 53.3016 81.3568C52.9281 81.2059 52.5887 80.9813 52.3038 80.6964C52.019 80.4116 51.7944 80.0722 51.6435 79.6987C51.4926 79.3251 51.4185 78.925 51.4256 78.5222C51.4327 78.1194 51.5209 77.7221 51.6849 77.3541C51.8488 76.9861 52.0853 76.6549 52.38 76.3803L77.26 51.5003H12.5C11.7044 51.5003 10.9413 51.1842 10.3787 50.6216C9.81607 50.059 9.5 49.2959 9.5 48.5003C9.5 47.7046 9.81607 46.9416 10.3787 46.379C10.9413 45.8164 11.7044 45.5003 12.5 45.5003H77.26L52.38 20.6203C51.8182 20.0578 51.5026 19.2953 51.5026 18.5003C51.5026 17.7053 51.8182 16.9428 52.38 16.3803Z" fill="white"/>
</svg>
