<svg width="48" height="48" viewBox="0 0 48 48" fill="none" xmlns="http://www.w3.org/2000/svg">
<path fill-rule="evenodd" clip-rule="evenodd" d="M11.25 3H18C19.9891 3 21.8968 3.79018 23.3033 5.1967C24.7098 6.60322 25.5 8.51088 25.5 10.5V14.25C25.5 16.322 27.18 18 29.25 18H33C34.9891 18 36.8968 18.7902 38.3033 20.1967C39.7098 21.6032 40.5 23.5109 40.5 25.5V41.25C40.5 43.32 38.82 45 36.75 45H11.25C10.2554 45 9.30161 44.6049 8.59835 43.9016C7.89509 43.1984 7.5 42.2446 7.5 41.25V6.75C7.5 4.678 9.18 3 11.25 3ZM19.5 34.5C19.5 34.1022 19.342 33.7206 19.0607 33.4393C18.7794 33.158 18.3978 33 18 33C17.6022 33 17.2206 33.158 16.9393 33.4393C16.658 33.7206 16.5 34.1022 16.5 34.5V36C16.5 36.3978 16.658 36.7794 16.9393 37.0607C17.2206 37.342 17.6022 37.5 18 37.5C18.3978 37.5 18.7794 37.342 19.0607 37.0607C19.342 36.7794 19.5 36.3978 19.5 36V34.5ZM24 28.5C24.3978 28.5 24.7794 28.658 25.0607 28.9393C25.342 29.2206 25.5 29.6022 25.5 30V36C25.5 36.3978 25.342 36.7794 25.0607 37.0607C24.7794 37.342 24.3978 37.5 24 37.5C23.6022 37.5 23.2206 37.342 22.9393 37.0607C22.658 36.7794 22.5 36.3978 22.5 36V30C22.5 29.6022 22.658 29.2206 22.9393 28.9393C23.2206 28.658 23.6022 28.5 24 28.5ZM31.5 25.5C31.5 25.1022 31.342 24.7206 31.0607 24.4393C30.7794 24.158 30.3978 24 30 24C29.6022 24 29.2206 24.158 28.9393 24.4393C28.658 24.7206 28.5 25.1022 28.5 25.5V36C28.5 36.3978 28.658 36.7794 28.9393 37.0607C29.2206 37.342 29.6022 37.5 30 37.5C30.3978 37.5 30.7794 37.342 31.0607 37.0607C31.342 36.7794 31.5 36.3978 31.5 36V25.5Z" fill="#CC3480"/>
<path d="M28.5 10.5C28.5035 7.97705 27.595 5.53789 25.942 3.63196C29.2886 4.51189 32.3414 6.26491 34.7882 8.71173C37.235 11.1586 38.9881 14.2114 39.868 17.558C37.9621 15.9049 35.5229 14.9965 33 15H29.25C29.0511 15 28.8603 14.9209 28.7197 14.7803C28.579 14.6396 28.5 14.4489 28.5 14.25V10.5Z" fill="#CC3480"/>
</svg>
