<svg width="48" height="48" viewBox="0 0 48 48" fill="none" xmlns="http://www.w3.org/2000/svg">
<path fill-rule="evenodd" clip-rule="evenodd" d="M15.0001 12V13.5H11.0261C9.10606 13.5 7.49806 14.948 7.29606 16.858L4.77006 40.858C4.71512 41.3807 4.77066 41.9091 4.93309 42.4089C5.09551 42.9088 5.36119 43.3689 5.7129 43.7594C6.0646 44.15 6.49446 44.4622 6.97462 44.676C7.45477 44.8897 7.97449 45.0001 8.50006 45H39.5001C40.0256 45.0001 40.5453 44.8897 41.0255 44.676C41.5056 44.4622 41.9355 44.15 42.2872 43.7594C42.6389 43.3689 42.9046 42.9088 43.067 42.4089C43.2295 41.9091 43.285 41.3807 43.2301 40.858L40.7041 16.858C40.6072 15.9363 40.1724 15.0831 39.4836 14.463C38.7948 13.8429 37.9008 13.4999 36.9741 13.5H33.0001V12C33.0001 9.61305 32.0518 7.32387 30.364 5.63604C28.6762 3.94821 26.387 3 24.0001 3C21.6131 3 19.3239 3.94821 17.6361 5.63604C15.9483 7.32387 15.0001 9.61305 15.0001 12ZM24.0001 6C22.4088 6 20.8826 6.63214 19.7574 7.75736C18.6322 8.88258 18.0001 10.4087 18.0001 12V13.5H30.0001V12C30.0001 10.4087 29.3679 8.88258 28.2427 7.75736C27.1175 6.63214 25.5914 6 24.0001 6ZM18.0001 22.5C18.0001 24.0913 18.6322 25.6174 19.7574 26.7426C20.8826 27.8679 22.4088 28.5 24.0001 28.5C25.5914 28.5 27.1175 27.8679 28.2427 26.7426C29.3679 25.6174 30.0001 24.0913 30.0001 22.5V21C30.0001 20.6022 30.1581 20.2206 30.4394 19.9393C30.7207 19.658 31.1022 19.5 31.5001 19.5C31.8979 19.5 32.2794 19.658 32.5607 19.9393C32.842 20.2206 33.0001 20.6022 33.0001 21V22.5C33.0001 24.8869 32.0518 27.1761 30.364 28.864C28.6762 30.5518 26.387 31.5 24.0001 31.5C21.6131 31.5 19.3239 30.5518 17.6361 28.864C15.9483 27.1761 15.0001 24.8869 15.0001 22.5V21C15.0001 20.6022 15.1581 20.2206 15.4394 19.9393C15.7207 19.658 16.1022 19.5 16.5001 19.5C16.8979 19.5 17.2794 19.658 17.5607 19.9393C17.842 20.2206 18.0001 20.6022 18.0001 21V22.5Z" fill="#CC3480"/>
</svg>
