<svg width="48" height="48" viewBox="0 0 48 48" fill="none" xmlns="http://www.w3.org/2000/svg">
<path d="M9.826 5.316C13.976 4.776 18.206 4.5 22.5 4.5C26.794 4.5 31.024 4.778 35.174 5.316C39.018 5.816 41.756 9.038 41.984 12.77C41.3154 12.5472 40.6224 12.4056 39.92 12.348C34.3163 11.8828 28.6837 11.8828 23.08 12.348C18.364 12.74 15 16.728 15 21.216V29.788C14.9981 31.4356 15.4515 33.0516 16.3102 34.4577C17.1689 35.8638 18.3995 37.0052 19.866 37.756L14.56 43.06C14.3502 43.2695 14.0831 43.4122 13.7923 43.4699C13.5015 43.5277 13.2001 43.498 12.9262 43.3846C12.6522 43.2712 12.4181 43.0791 12.2532 42.8327C12.0884 42.5862 12.0003 42.2965 12 42V33.94C11.2744 33.8628 10.5497 33.7775 9.826 33.684C5.81 33.16 3 29.666 3 25.724V13.276C3 9.336 5.81 5.838 9.826 5.316Z" fill="#CC3480"/>
<path d="M31.5 15C28.748 15 26.022 15.114 23.328 15.338C20.248 15.594 18 18.206 18 21.218V29.788C18 32.802 20.256 35.416 23.34 35.668C25.826 35.872 28.34 35.982 30.876 35.998L36.44 41.56C36.6498 41.7695 36.9169 41.9122 37.2077 41.9699C37.4985 42.0277 37.7999 41.998 38.0738 41.8846C38.3478 41.7712 38.5819 41.5791 38.7468 41.3327C38.9116 41.0862 38.9997 40.7965 39 40.5V35.72L39.66 35.668C42.744 35.418 45 32.802 45 29.788V21.216C45 18.206 42.75 15.594 39.672 15.336C36.9538 15.1112 34.2275 14.9991 31.5 15Z" fill="#CC3480"/>
</svg>
