<svg width="48" height="48" viewBox="0 0 48 48" fill="none" xmlns="http://www.w3.org/2000/svg">
<path fill-rule="evenodd" clip-rule="evenodd" d="M3 12.75C3 10.678 4.68 9 6.75 9H41.25C43.32 9 45 10.68 45 12.75V18.802C45.0002 19.0655 44.9309 19.3243 44.7993 19.5525C44.6676 19.7808 44.4782 19.9703 44.25 20.102C43.565 20.4964 42.996 21.0644 42.6004 21.7487C42.2048 22.4331 41.9965 23.2095 41.9965 24C41.9965 24.7905 42.2048 25.5669 42.6004 26.2513C42.996 26.9356 43.565 27.5036 44.25 27.898C44.4782 28.0297 44.6676 28.2192 44.7993 28.4475C44.9309 28.6757 45.0002 28.9345 45 29.198V35.25C45 37.32 43.32 39 41.25 39H6.75C5.75544 39 4.80161 38.6049 4.09835 37.9016C3.39509 37.1984 3 36.2446 3 35.25V29.198C2.99963 28.9347 3.06856 28.676 3.19986 28.4478C3.33116 28.2196 3.5202 28.03 3.748 27.898C4.43301 27.5036 5.00199 26.9356 5.39761 26.2513C5.79324 25.5669 6.00154 24.7905 6.00154 24C6.00154 23.2095 5.79324 22.4331 5.39761 21.7487C5.00199 21.0644 4.43301 20.4964 3.748 20.102C3.5202 19.97 3.33116 19.7804 3.19986 19.5522C3.06856 19.324 2.99963 19.0653 3 18.802V12.75ZM33 10.5C33.3978 10.5 33.7794 10.658 34.0607 10.9393C34.342 11.2206 34.5 11.6022 34.5 12V13.5C34.5 13.8978 34.342 14.2794 34.0607 14.5607C33.7794 14.842 33.3978 15 33 15C32.6022 15 32.2206 14.842 31.9393 14.5607C31.658 14.2794 31.5 13.8978 31.5 13.5V12C31.5 11.6022 31.658 11.2206 31.9393 10.9393C32.2206 10.658 32.6022 10.5 33 10.5ZM34.5 19.5C34.5 19.1022 34.342 18.7206 34.0607 18.4393C33.7794 18.158 33.3978 18 33 18C32.6022 18 32.2206 18.158 31.9393 18.4393C31.658 18.7206 31.5 19.1022 31.5 19.5V21C31.5 21.3978 31.658 21.7794 31.9393 22.0607C32.2206 22.342 32.6022 22.5 33 22.5C33.3978 22.5 33.7794 22.342 34.0607 22.0607C34.342 21.7794 34.5 21.3978 34.5 21V19.5ZM33 25.5C33.3978 25.5 33.7794 25.658 34.0607 25.9393C34.342 26.2206 34.5 26.6022 34.5 27V28.5C34.5 28.8978 34.342 29.2794 34.0607 29.5607C33.7794 29.842 33.3978 30 33 30C32.6022 30 32.2206 29.842 31.9393 29.5607C31.658 29.2794 31.5 28.8978 31.5 28.5V27C31.5 26.6022 31.658 26.2206 31.9393 25.9393C32.2206 25.658 32.6022 25.5 33 25.5ZM34.5 34.5C34.5 34.1022 34.342 33.7206 34.0607 33.4393C33.7794 33.158 33.3978 33 33 33C32.6022 33 32.2206 33.158 31.9393 33.4393C31.658 33.7206 31.5 34.1022 31.5 34.5V36C31.5 36.3978 31.658 36.7794 31.9393 37.0607C32.2206 37.342 32.6022 37.5 33 37.5C33.3978 37.5 33.7794 37.342 34.0607 37.0607C34.342 36.7794 34.5 36.3978 34.5 36V34.5ZM12 24C12 23.6022 12.158 23.2206 12.4393 22.9393C12.7206 22.658 13.1022 22.5 13.5 22.5H24C24.3978 22.5 24.7794 22.658 25.0607 22.9393C25.342 23.2206 25.5 23.6022 25.5 24C25.5 24.3978 25.342 24.7794 25.0607 25.0607C24.7794 25.342 24.3978 25.5 24 25.5H13.5C13.1022 25.5 12.7206 25.342 12.4393 25.0607C12.158 24.7794 12 24.3978 12 24ZM13.5 28.5C13.1022 28.5 12.7206 28.658 12.4393 28.9393C12.158 29.2206 12 29.6022 12 30C12 30.3978 12.158 30.7794 12.4393 31.0607C12.7206 31.342 13.1022 31.5 13.5 31.5H19.5C19.8978 31.5 20.2794 31.342 20.5607 31.0607C20.842 30.7794 21 30.3978 21 30C21 29.6022 20.842 29.2206 20.5607 28.9393C20.2794 28.658 19.8978 28.5 19.5 28.5H13.5Z" fill="#CC3480"/>
</svg>
