<svg width="125" height="47" viewBox="0 0 125 47" fill="none" xmlns="http://www.w3.org/2000/svg">
<circle cx="1.39665" cy="1.39665" r="1.39665" fill="#D9D9D9"/>
<circle cx="18.8547" cy="1.39665" r="1.39665" fill="#D9D9D9"/>
<circle cx="36.3128" cy="1.39665" r="1.39665" fill="#D9D9D9"/>
<circle cx="53.7709" cy="1.39665" r="1.39665" fill="#D9D9D9"/>
<circle cx="71.229" cy="1.39665" r="1.39665" fill="#D9D9D9"/>
<circle cx="88.6872" cy="1.39665" r="1.39665" fill="#D9D9D9"/>
<circle cx="106.145" cy="1.39665" r="1.39665" fill="#D9D9D9"/>
<circle cx="123.603" cy="1.39665" r="1.39665" fill="#D9D9D9"/>
<circle cx="1.39665" cy="23.0447" r="1.39665" fill="#D9D9D9"/>
<circle cx="18.8547" cy="23.0447" r="1.39665" fill="#D9D9D9"/>
<circle cx="36.3128" cy="23.0447" r="1.39665" fill="#D9D9D9"/>
<circle cx="53.7709" cy="23.0447" r="1.39665" fill="#D9D9D9"/>
<circle cx="71.229" cy="23.0447" r="1.39665" fill="#D9D9D9"/>
<circle cx="88.6872" cy="23.0447" r="1.39665" fill="#D9D9D9"/>
<circle cx="106.145" cy="23.0447" r="1.39665" fill="#D9D9D9"/>
<circle cx="123.603" cy="23.0447" r="1.39665" fill="#D9D9D9"/>
<circle cx="1.39665" cy="44.6927" r="1.39665" fill="#D9D9D9"/>
<circle cx="18.8547" cy="44.6927" r="1.39665" fill="#D9D9D9"/>
<circle cx="36.3128" cy="44.6927" r="1.39665" fill="#D9D9D9"/>
<circle cx="53.7709" cy="44.6927" r="1.39665" fill="#D9D9D9"/>
<circle cx="71.229" cy="44.6927" r="1.39665" fill="#D9D9D9"/>
<circle cx="88.6872" cy="44.6927" r="1.39665" fill="#D9D9D9"/>
<circle cx="106.145" cy="44.6927" r="1.39665" fill="#D9D9D9"/>
<circle cx="123.603" cy="44.6927" r="1.39665" fill="#D9D9D9"/>
</svg>
